# xmcd
#
# Track frame offsets: 
#        150
#        15507
#        48917
#
# Disc length: 1065 seconds
#
# Revision: 0
# Processed by: cddbd v1.5.2PL0 Copyright (c) Steve Scherf et al.
# Submitted via: ExactAudioCopyFreeDBPlugin 1.0
#
DISCID=17042703
DTITLE=Mass Syndicate Featuring Su Su Bobien - You Don't Know
DYEAR=1998
DGENRE=Dance
TTITLE0=You Don't Know (M.A.S. Collective Radio Edit)
TTITLE1=You Don't Know (Classic Nice 'N' Ripe Mix)
TTITLE2=You Don't Know (Beloved Club Vocal)
EXTD=
EXTT0=
EXTT1=
EXTT2=
PLAYORDER=
